:version	1.10
:name	0101
:units
	mass	kg
	length	m
	angle	deg
:documentation
	fps:30
:root
	axis	XYZ
	order	TX	TY	TZ	RX	RY	RZ
	position	0.00	0.00	0.00
	orientation	0.00	0.00	0.00
:bonedata
	begin
		id	1
		name	Head
		direction	-18.5	116.2	-38.8
		length	123.9
		axis	0.0	0.0	0.0	XYZ
		dof	rx	ry	rz
		limits	(-inf	inf)
			(-inf	inf)
			(-inf	inf)
	end
	begin
		id	2
		name	Neck
		direction	-1.6	89.5	-15.3
		length	90.8
		axis	0.0	0.0	0.0	XYZ
		dof	rx	ry	rz
		limits	(-inf	inf)
			(-inf	inf)
			(-inf	inf)
	end
	begin
		id	3
		name	LeftCollar
		direction	-5.0	276.0	-47.2
		length	280.1
		axis	0.0	0.0	0.0	XYZ
		dof	rx	ry	rz
		limits	(-inf	inf)
			(-inf	inf)
			(-inf	inf)
	end
	begin
		id	4
		name	Torso
		direction	4.0	199.4	8.5
		length	199.7
		axis	0.0	0.0	0.0	XYZ
		dof	rx	ry	rz
		limits	(-inf	inf)
			(-inf	inf)
			(-inf	inf)
	end
	begin
		id	5
		name	LeftShoulder
		direction	170.7	-14.1	-44.7
		length	177.0
		axis	0.0	0.0	0.0	XYZ
		dof	rx	ry	rz
		limits	(-inf	inf)
			(-inf	inf)
			(-inf	inf)
	end
	begin
		id	6
		name	RightShoulder
		direction	-174.2	6.3	52.4
		length	182.0
		axis	0.0	0.0	0.0	XYZ
		dof	rx	ry	rz
		limits	(-inf	inf)
			(-inf	inf)
			(-inf	inf)
	end
	begin
		id	7
		name	LeftElbow
		direction	55.3	-271.7	26.6
		length	278.5
		axis	0.0	0.0	0.0	XYZ
		dof	rx	ry	rz
		limits	(-inf	inf)
			(-inf	inf)
			(-inf	inf)
	end
	begin
		id	8
		name	RightElbow
		direction	-37.0	-268.0	66.2
		length	278.5
		axis	0.0	0.0	0.0	XYZ
		dof	rx	ry	rz
		limits	(-inf	inf)
			(-inf	inf)
			(-inf	inf)
	end
	begin
		id	9
		name	LeftWrist
		direction	69.1	-260.5	-128.7
		length	298.7
		axis	0.0	0.0	0.0	XYZ
		dof	rx	ry	rz
		limits	(-inf	inf)
			(-inf	inf)
			(-inf	inf)
	end
	begin
		id	10
		name	RightWrist
		direction	-79.9	-277.4	-76.9
		length	298.7
		axis	0.0	0.0	0.0	XYZ
		dof	rx	ry	rz
		limits	(-inf	inf)
			(-inf	inf)
			(-inf	inf)
	end
	begin
		id	11
		name	LeftHand
		direction	13.8	-52.1	-25.7
		length	59.7
		axis	0.0	0.0	0.0	XYZ
		dof	rx	ry	rz
		limits	(-inf	inf)
			(-inf	inf)
			(-inf	inf)
	end
	begin
		id	12
		name	RightHand
		direction	-16.0	-55.5	-15.4
		length	59.7
		axis	0.0	0.0	0.0	XYZ
		dof	rx	ry	rz
		limits	(-inf	inf)
			(-inf	inf)
			(-inf	inf)
	end
	begin
		id	13
		name	LeftHip
		direction	117.3	-70.1	12.8
		length	137.3
		axis	0.0	0.0	0.0	XYZ
		dof	rx	ry	rz
		limits	(-inf	inf)
			(-inf	inf)
			(-inf	inf)
	end
	begin
		id	14
		name	RightHip
		direction	-108.5	-76.7	41.0
		length	139.0
		axis	0.0	0.0	0.0	XYZ
		dof	rx	ry	rz
		limits	(-inf	inf)
			(-inf	inf)
			(-inf	inf)
	end
	begin
		id	15
		name	LeftKnee
		direction	-0.2	-428.3	-95.5
		length	438.9
		axis	0.0	0.0	0.0	XYZ
		dof	rx	ry	rz
		limits	(-inf	inf)
			(-inf	inf)
			(-inf	inf)
	end
	begin
		id	16
		name	RightKnee
		direction	16.9	-434.8	-56.9
		length	438.9
		axis	0.0	0.0	0.0	XYZ
		dof	rx	ry	rz
		limits	(-inf	inf)
			(-inf	inf)
			(-inf	inf)
	end
	begin
		id	17
		name	LeftAnkle
		direction	51.1	-389.3	75.6
		length	399.8
		axis	0.0	0.0	0.0	XYZ
		dof	rx	ry	rz
		limits	(-inf	inf)
			(-inf	inf)
			(-inf	inf)
	end
	begin
		id	18
		name	RightAnkle
		direction	-36.9	-388.8	85.6
		length	399.8
		axis	0.0	0.0	0.0	XYZ
		dof	rx	ry	rz
		limits	(-inf	inf)
			(-inf	inf)
			(-inf	inf)
	end
:hierarchy
	begin
		Neck	Head
		LeftCollar	Neck	LeftShoulder	RightShoulder
		Torso	LeftCollar
		root	Torso	LeftHip	RightHip
		LeftShoulder	LeftElbow
		RightShoulder	RightElbow
		LeftElbow	LeftWrist
		RightElbow	RightWrist
		LeftWrist	LeftHand
		RightWrist	RightHand
		LeftHip	LeftKnee
		RightHip	RightKnee
		LeftKnee	LeftAnkle
		RightKnee	RightAnkle
	end

:FULLY-SPECIFIED
:DEGREES
231
Head	-19.19	15.48	-5.92
Neck	-19.19	15.48	-5.92
LeftCollar	-19.19	15.48	-5.92
Torso	-19.19	15.48	-5.92
root	126.50	31.08	2779.30	-7.98	7.36	0.14
LeftShoulder	11.28	-16.08	-74.41
RightShoulder	29.23	20.24	80.56
LeftElbow	12.79	31.86	-64.41
RightElbow	27.62	-8.79	65.03
LeftWrist	12.35	28.50	-65.28
RightWrist	27.49	-7.05	65.94
LeftHand	12.35	28.50	-65.28
RightHand	27.49	-7.05	65.94
LeftHip	7.99	25.49	4.25
RightHip	2.75	-2.60	1.84
LeftKnee	-4.12	25.49	4.25
RightKnee	-3.82	-2.60	1.84
LeftAnkle	-4.12	25.49	4.25
RightAnkle	-3.82	-2.60	1.84
232
Head	-19.19	15.48	-5.92
Neck	-19.19	15.48	-5.92
LeftCollar	-19.19	15.48	-5.92
Torso	-19.19	15.48	-5.92
root	126.50	31.08	2779.30	-7.98	7.36	0.14
LeftShoulder	11.28	-16.08	-74.41
RightShoulder	29.23	20.24	80.56
LeftElbow	12.79	31.86	-64.41
RightElbow	27.62	-8.79	65.03
LeftWrist	12.35	28.50	-65.28
RightWrist	27.49	-7.05	65.94
LeftHand	12.35	28.50	-65.28
RightHand	27.49	-7.05	65.94
LeftHip	7.99	25.49	4.25
RightHip	2.75	-2.60	1.84
LeftKnee	-4.12	25.49	4.25
RightKnee	-3.82	-2.60	1.84
LeftAnkle	-4.12	25.49	4.25
RightAnkle	-3.82	-2.60	1.84
233
Head	-15.25	16.78	-4.61
Neck	-15.25	16.78	-4.61
LeftCollar	-15.25	16.78	-4.61
Torso	-15.25	16.78	-4.61
root	126.46	34.34	2766.59	-6.69	7.33	0.01
LeftShoulder	14.75	-13.55	-76.39
RightShoulder	26.62	16.78	80.69
LeftElbow	16.61	30.05	-64.36
RightElbow	25.86	-10.40	67.46
LeftWrist	16.10	26.84	-65.44
RightWrist	25.73	-8.78	68.25
LeftHand	16.10	26.84	-65.44
RightHand	25.73	-8.78	68.25
LeftHip	7.35	26.43	3.45
RightHip	1.84	-2.49	2.08
LeftKnee	-6.06	26.43	3.45
RightKnee	-3.68	-2.49	2.08
LeftAnkle	-6.06	26.43	3.45
RightAnkle	-3.68	-2.49	2.08
234
Head	-15.25	16.78	-4.61
Neck	-15.25	16.78	-4.61
LeftCollar	-15.25	16.78	-4.61
Torso	-15.25	16.78	-4.61
root	126.46	34.34	2766.59	-6.69	7.33	0.01
LeftShoulder	14.75	-13.55	-76.39
RightShoulder	26.62	16.78	80.69
LeftElbow	16.61	30.05	-64.36
RightElbow	25.86	-10.40	67.46
LeftWrist	16.10	26.84	-65.44
RightWrist	25.73	-8.78	68.25
LeftHand	16.10	26.84	-65.44
RightHand	25.73	-8.78	68.25
LeftHip	7.35	26.43	3.45
RightHip	1.84	-2.49	2.08
LeftKnee	-6.06	26.43	3.45
RightKnee	-3.68	-2.49	2.08
LeftAnkle	-6.06	26.43	3.45
RightAnkle	-3.68	-2.49	2.08
235
Head	-12.48	17.21	-3.36
Neck	-12.48	17.21	-3.36
LeftCollar	-12.48	17.21	-3.36
Torso	-12.48	17.21	-3.36
root	126.51	33.46	2756.63	-5.15	7.51	0.26
LeftShoulder	16.32	-11.60	-77.73
RightShoulder	24.17	14.38	81.01
LeftElbow	18.51	29.93	-64.87
RightElbow	23.99	-12.67	69.08
LeftWrist	18.00	27.07	-65.95
RightWrist	23.87	-11.40	69.66
LeftHand	18.00	27.07	-65.95
RightHand	23.87	-11.40	69.66
LeftHip	7.00	26.99	2.99
RightHip	1.24	-2.16	2.14
LeftKnee	-8.17	26.99	2.99
RightKnee	-4.94	-2.16	2.14
LeftAnkle	-8.17	26.99	2.99
RightAnkle	-4.94	-2.16	2.14
236
Head	-12.48	17.21	-3.36
Neck	-12.48	17.21	-3.36
LeftCollar	-12.48	17.21	-3.36
Torso	-12.48	17.21	-3.36
root	126.51	33.46	2756.63	-5.15	7.51	0.26
LeftShoulder	16.32	-11.60	-77.73
RightShoulder	24.17	14.38	81.01
LeftElbow	18.51	29.93	-64.87
RightElbow	23.99	-12.67	69.08
LeftWrist	18.00	27.07	-65.95
RightWrist	23.87	-11.40	69.66
LeftHand	18.00	27.07	-65.95
RightHand	23.87	-11.40	69.66
LeftHip	7.00	26.99	2.99
RightHip	1.24	-2.16	2.14
LeftKnee	-8.17	26.99	2.99
RightKnee	-4.94	-2.16	2.14
LeftAnkle	-8.17	26.99	2.99
RightAnkle	-4.94	-2.16	2.14
237
Head	-10.52	17.47	-2.39
Neck	-10.52	17.47	-2.39
LeftCollar	-10.52	17.47	-2.39
Torso	-10.52	17.47	-2.39
root	126.84	29.75	2747.99	-3.56	6.87	0.58
LeftShoulder	16.07	-10.02	-78.24
RightShoulder	22.15	12.75	81.24
LeftElbow	18.19	29.18	-66.26
RightElbow	22.34	-14.69	70.15
LeftWrist	17.73	26.47	-67.26
RightWrist	22.24	-13.77	70.54
LeftHand	17.73	26.47	-67.26
RightHand	22.24	-13.77	70.54
LeftHip	8.30	26.09	2.77
RightHip	1.16	-3.06	2.12
LeftKnee	-11.27	26.09	2.77
RightKnee	-6.43	-3.06	2.12
LeftAnkle	-11.27	26.09	2.77
RightAnkle	-6.43	-3.06	2.12
238
Head	-10.52	17.47	-2.39
Neck	-10.52	17.47	-2.39
LeftCollar	-10.52	17.47	-2.39
Torso	-10.52	17.47	-2.39
root	126.84	29.75	2747.99	-3.56	6.87	0.58
LeftShoulder	16.07	-10.02	-78.24
RightShoulder	22.15	12.75	81.24
LeftElbow	18.19	29.18	-66.26
RightElbow	22.34	-14.69	70.15
LeftWrist	17.73	26.47	-67.26
RightWrist	22.24	-13.77	70.54
LeftHand	17.73	26.47	-67.26
RightHand	22.24	-13.77	70.54
LeftHip	8.30	26.09	2.77
RightHip	1.16	-3.06	2.12
LeftKnee	-11.27	26.09	2.77
RightKnee	-6.43	-3.06	2.12
LeftAnkle	-11.27	26.09	2.77
RightAnkle	-6.43	-3.06	2.12
239
Head	-10.52	17.47	-2.39
Neck	-10.52	17.47	-2.39
LeftCollar	-10.52	17.47	-2.39
Torso	-10.52	17.47	-2.39
root	126.84	29.75	2747.99	-3.56	6.87	0.58
LeftShoulder	16.07	-10.02	-78.24
RightShoulder	22.15	12.75	81.24
LeftElbow	18.19	29.18	-66.26
RightElbow	22.34	-14.69	70.15
LeftWrist	17.73	26.47	-67.26
RightWrist	22.24	-13.77	70.54
LeftHand	17.73	26.47	-67.26
RightHand	22.24	-13.77	70.54
LeftHip	8.30	26.09	2.77
RightHip	1.16	-3.06	2.12
LeftKnee	-11.27	26.09	2.77
RightKnee	-6.43	-3.06	2.12
LeftAnkle	-11.27	26.09	2.77
RightAnkle	-6.43	-3.06	2.12
240
Head	-9.03	17.41	-1.39
Neck	-9.03	17.41	-1.39
LeftCollar	-9.03	17.41	-1.39
Torso	-9.03	17.41	-1.39
root	127.51	20.68	2742.54	-3.98	5.21	0.61
LeftShoulder	13.87	-8.71	-78.62
RightShoulder	20.04	11.61	81.33
LeftElbow	15.33	26.32	-69.55
RightElbow	20.38	-15.53	71.45
LeftWrist	14.98	23.54	-70.38
RightWrist	20.31	-14.80	71.73
LeftHand	14.98	23.54	-70.38
RightHand	20.31	-14.80	71.73
LeftHip	6.96	25.52	2.92
RightHip	1.05	-5.52	2.04
LeftKnee	-9.73	25.52	2.92
RightKnee	-7.37	-5.52	2.04
LeftAnkle	-9.73	25.52	2.92
RightAnkle	-7.37	-5.52	2.04
241
Head	-8.05	17.08	-0.59
Neck	-8.05	17.08	-0.59
LeftCollar	-8.05	17.08	-0.59
Torso	-8.05	17.08	-0.59
root	128.94	9.06	2739.40	-4.04	5.34	0.41
LeftShoulder	10.70	-7.96	-78.89
RightShoulder	17.50	11.23	81.27
LeftElbow	11.79	25.87	-72.19
RightElbow	18.03	-17.70	72.10
LeftWrist	11.57	23.58	-72.71
RightWrist	18.02	-17.62	72.13
LeftHand	11.57	23.58	-72.71
RightHand	18.02	-17.62	72.13
LeftHip	6.85	27.08	3.11
RightHip	0.99	-7.04	1.81
LeftKnee	-9.86	27.08	3.11
RightKnee	-8.08	-7.04	1.81
LeftAnkle	-9.86	27.08	3.11
RightAnkle	-8.08	-7.04	1.81
242
Head	-8.05	17.08	-0.59
Neck	-8.05	17.08	-0.59
LeftCollar	-8.05	17.08	-0.59
Torso	-8.05	17.08	-0.59
root	128.94	9.06	2739.40	-4.04	5.34	0.41
LeftShoulder	10.70	-7.96	-78.89
RightShoulder	17.50	11.23	81.27
LeftElbow	11.79	25.87	-72.19
RightElbow	18.03	-17.70	72.10
LeftWrist	11.57	23.58	-72.71
RightWrist	18.02	-17.62	72.13
LeftHand	11.57	23.58	-72.71
RightHand	18.02	-17.62	72.13
LeftHip	6.85	27.08	3.11
RightHip	0.99	-7.04	1.81
LeftKnee	-9.86	27.08	3.11
RightKnee	-8.08	-7.04	1.81
LeftAnkle	-9.86	27.08	3.11
RightAnkle	-8.08	-7.04	1.81
243
Head	-7.86	17.01	-0.27
Neck	-7.86	17.01	-0.27
LeftCollar	-7.86	17.01	-0.27
Torso	-7.86	17.01	-0.27
root	130.40	4.60	2739.02	-3.69	4.17	0.36
LeftShoulder	9.20	-8.08	-78.33
RightShoulder	16.39	11.63	81.43
LeftElbow	10.14	25.93	-72.55
RightElbow	16.94	-18.39	72.54
LeftWrist	9.98	24.06	-72.92
RightWrist	16.97	-18.73	72.44
LeftHand	9.98	24.06	-72.92
RightHand	16.97	-18.73	72.44
LeftHip	9.33	25.54	2.94
RightHip	1.97	-10.25	2.02
LeftKnee	-12.37	25.54	2.94
RightKnee	-10.06	-10.25	2.02
LeftAnkle	-12.37	25.54	2.94
RightAnkle	-10.06	-10.25	2.02
244
Head	-7.86	17.01	-0.27
Neck	-7.86	17.01	-0.27
LeftCollar	-7.86	17.01	-0.27
Torso	-7.86	17.01	-0.27
root	130.40	4.60	2739.02	-3.69	4.17	0.36
LeftShoulder	9.20	-8.08	-78.33
RightShoulder	16.39	11.63	81.43
LeftElbow	10.14	25.93	-72.55
RightElbow	16.94	-18.39	72.54
LeftWrist	9.98	24.06	-72.92
RightWrist	16.97	-18.73	72.44
LeftHand	9.98	24.06	-72.92
RightHand	16.97	-18.73	72.44
LeftHip	9.33	25.54	2.94
RightHip	1.97	-10.25	2.02
LeftKnee	-12.37	25.54	2.94
RightKnee	-10.06	-10.25	2.02
LeftAnkle	-12.37	25.54	2.94
RightAnkle	-10.06	-10.25	2.02
245
Head	-7.86	16.97	-0.18
Neck	-7.86	16.97	-0.18
LeftCollar	-7.86	16.97	-0.18
Torso	-7.86	16.97	-0.18
root	131.17	4.38	2739.03	-3.72	3.67	0.33
LeftShoulder	8.56	-8.26	-78.06
RightShoulder	15.95	11.94	81.53
LeftElbow	9.44	26.06	-72.64
RightElbow	16.47	-18.49	72.79
LeftWrist	9.31	24.46	-72.93
RightWrist	16.52	-19.01	72.62
LeftHand	9.31	24.46	-72.93
RightHand	16.52	-19.01	72.62
LeftHip	9.72	24.28	2.63
RightHip	2.82	-12.05	2.15
LeftKnee	-12.62	24.28	2.63
RightKnee	-11.05	-12.05	2.15
LeftAnkle	-12.62	24.28	2.63
RightAnkle	-11.05	-12.05	2.15
246
Head	-7.84	16.89	-0.10
Neck	-7.84	16.89	-0.10
LeftCollar	-7.84	16.89	-0.10
Torso	-7.84	16.89	-0.10
root	132.65	9.20	2739.30	-4.59	4.72	0.32
LeftShoulder	7.63	-8.62	-77.67
RightShoulder	14.49	12.60	81.39
LeftElbow	8.42	26.34	-72.76
RightElbow	14.95	-18.78	73.24
LeftWrist	8.34	25.22	-72.95
RightWrist	15.03	-19.60	73.01
LeftHand	8.34	25.22	-72.95
RightHand	15.03	-19.60	73.01
LeftHip	7.10	25.66	2.30
RightHip	1.87	-12.58	2.14
LeftKnee	-10.07	25.66	2.30
RightKnee	-9.32	-12.58	2.14
LeftAnkle	-10.07	25.66	2.30
RightAnkle	-9.32	-12.58	2.14
247
Head	-7.83	16.82	-0.13
Neck	-7.83	16.82	-0.13
LeftCollar	-7.83	16.82	-0.13
Torso	-7.83	16.82	-0.13
root	132.92	12.78	2739.47	-4.42	5.13	0.32
LeftShoulder	7.35	-8.81	-77.57
RightShoulder	13.98	12.89	81.32
LeftElbow	8.12	26.44	-72.80
RightElbow	14.41	-18.87	73.39
LeftWrist	8.06	25.54	-72.94
RightWrist	14.49	-19.80	73.14
LeftHand	8.06	25.54	-72.94
RightHand	14.49	-19.80	73.14
LeftHip	6.25	26.65	2.27
RightHip	1.48	-12.73	2.23
LeftKnee	-9.06	26.65	2.27
RightKnee	-8.96	-12.73	2.23
LeftAnkle	-9.06	26.65	2.27
RightAnkle	-8.96	-12.73	2.23
248
Head	-7.78	16.63	-0.07
Neck	-7.78	16.63	-0.07
LeftCollar	-7.78	16.63	-0.07
Torso	-7.78	16.63	-0.07
root	133.02	15.50	2739.61	-4.32	5.64	0.28
LeftShoulder	7.84	-9.05	-77.34
RightShoulder	13.49	13.21	81.22
LeftElbow	8.65	26.47	-72.22
RightElbow	13.90	-18.93	73.49
LeftWrist	8.60	25.83	-72.33
RightWrist	13.99	-19.97	73.22
LeftHand	8.60	25.83	-72.33
RightHand	13.99	-19.97	73.22
LeftHip	5.74	27.87	2.23
RightHip	1.03	-12.88	2.35
LeftKnee	-8.40	27.87	2.23
RightKnee	-8.08	-12.88	2.35
LeftAnkle	-8.40	27.87	2.23
RightAnkle	-8.08	-12.88	2.35
